<svg xmlns="http://www.w3.org/2000/svg" width="142" height="29" viewBox="0 0 142 29" fill="none"><g clip-path="url(#clip0_32_2149)"><path fill-rule="evenodd" clip-rule="evenodd" d="M24.277 0H14.4114L0 14.4876L14.2974 29H24.3666H29.9308L23.6904 22.6627H18.0692L9.97149 14.5124L24.277 0Z" fill="#0D688E"></path><path fill-rule="evenodd" clip-rule="evenodd" d="M27.1531 2.90907L27.145 2.91731L24.2774 0L19.3731 4.97755L22.2244 7.86189L15.6338 14.4876L29.9311 29H40.0004L25.6134 14.5124L32.1144 7.91134L27.1531 2.90907Z" fill="#EB4304"></path></g><path d="M124.826 28.5674L130.079 18.726V20.0058L124.949 10.8854H129.849L133.28 17.4102H133.581L136.977 10.8854H141.859L136.747 20.0058V18.726L142 28.5674H137.101L133.581 21.664H133.28L129.725 28.5674H124.826Z" fill="#0D688E"></path><path d="M118.521 28.5674V10.8854H123.048V28.5674H118.521ZM120.785 8.79452C119.924 8.79452 119.287 8.59024 118.874 8.18169C118.473 7.76112 118.273 7.18433 118.273 6.45133V6.36121C118.273 5.62821 118.473 5.05143 118.874 4.63086C119.287 4.21029 119.924 4 120.785 4C121.633 4 122.264 4.21029 122.677 4.63086C123.09 5.05143 123.296 5.62821 123.296 6.36121V6.45133C123.296 7.19635 123.09 7.77313 122.677 8.18169C122.264 8.59024 121.633 8.79452 120.785 8.79452Z" fill="#0D688E"></path><path d="M105.364 28.5674V6.41528H110.016V28.5674H105.364ZM98.9256 9.47945V5.53208H116.418V9.47945H98.9256Z" fill="#0D688E"></path><path d="M92.5756 29C89.6041 29 87.3931 28.3031 85.9428 26.9092C84.4924 25.5153 83.7672 23.4965 83.7672 20.8529V18.5458C83.7672 15.9262 84.4452 13.9135 85.8013 12.5076C87.1573 11.1017 89.1265 10.3987 91.7089 10.3987C93.454 10.3987 94.9103 10.7111 96.0777 11.336C97.245 11.9608 98.1176 12.85 98.6954 14.0036C99.285 15.1452 99.5798 16.515 99.5798 18.1132V18.7441C99.5798 19.1766 99.5562 19.6212 99.509 20.0779C99.4737 20.5225 99.4206 20.943 99.3498 21.3396H95.2464C95.2817 20.6787 95.2994 20.0538 95.2994 19.465C95.3112 18.8642 95.3171 18.3235 95.3171 17.8428C95.3171 17.0137 95.1874 16.3107 94.928 15.734C94.6686 15.1452 94.2735 14.7006 93.7429 14.4001C93.2123 14.0997 92.5343 13.9495 91.7089 13.9495C90.4943 13.9495 89.5982 14.292 89.0204 14.9769C88.4426 15.6619 88.1537 16.6352 88.1537 17.8969V19.5371L88.1714 20.0598V21.4477C88.1714 22.0005 88.2539 22.5112 88.419 22.9798C88.5959 23.4484 88.8848 23.857 89.2857 24.2055C89.6866 24.5419 90.2172 24.8063 90.8776 24.9986C91.5497 25.1908 92.3869 25.2869 93.3892 25.2869C94.474 25.2869 95.5058 25.1668 96.4845 24.9265C97.475 24.6741 98.4124 24.3377 99.2968 23.9171L98.9077 27.558C98.1176 28.0026 97.1861 28.3511 96.113 28.6035C95.0518 28.8678 93.8726 29 92.5756 29ZM86.1727 21.3396V18.2754H98.4301V21.3396H86.1727Z" fill="#0D688E"></path><path d="M66.4059 28.5674L71.6591 18.726V20.0058L66.5297 10.8854H71.4291L74.8605 17.4102H75.1612L78.5572 10.8854H83.4389L78.3272 20.0058V18.726L83.5804 28.5674H78.681L75.1612 21.664H74.8605L71.3053 28.5674H66.4059Z" fill="#0D688E"></path><path d="M60.1009 28.5674V10.8854H64.6289V28.5674H60.1009ZM62.3649 8.79452C61.5041 8.79452 60.8674 8.59024 60.4547 8.18169C60.0537 7.76112 59.8533 7.18433 59.8533 6.45133V6.36121C59.8533 5.62821 60.0537 5.05143 60.4547 4.63086C60.8674 4.21029 61.5041 4 62.3649 4C63.2139 4 63.8447 4.21029 64.2575 4.63086C64.6702 5.05143 64.8765 5.62821 64.8765 6.36121V6.45133C64.8765 7.19635 64.6702 7.77313 64.2575 8.18169C63.8447 8.59024 63.2139 8.79452 62.3649 8.79452Z" fill="#0D688E"></path><path d="M52.8588 28.5674L52.3458 24.0793C52.2633 23.2742 52.0982 22.6013 51.8506 22.0606C51.6029 21.5198 51.2315 21.1113 50.7363 20.8349C50.241 20.5465 49.5571 20.4023 48.6845 20.4023L43.2191 20.3843V16.7433L48.9675 16.7253C50.2528 16.7253 51.1726 16.4249 51.7268 15.8241C52.2928 15.2112 52.5758 14.3401 52.5758 13.2105V12.7779C52.5758 11.6604 52.2928 10.8133 51.7268 10.2365C51.1726 9.64768 50.241 9.35328 48.9321 9.35328H43.166V5.53208H49.5866C52.2397 5.53208 54.1735 6.07883 55.3881 7.17231C56.6144 8.2658 57.2275 9.82192 57.2275 11.8407V12.3453C57.2275 13.8594 56.8679 15.061 56.1486 15.9503C55.4293 16.8395 54.2855 17.3682 52.7173 17.5364V18.1853L51.4261 17.5364C52.7703 17.6325 53.808 17.9209 54.5391 18.4016C55.2819 18.8822 55.8243 19.5491 56.1663 20.4023C56.5083 21.2435 56.7677 22.2889 56.9445 23.5386L57.6344 28.5674H52.8588ZM40 28.5674V5.53208H44.528V18.0411L44.5634 19.7895V28.5674H40Z" fill="#0D688E"></path><defs><clipPath id="clip0_32_2149"><rect width="40" height="29" fill="white"></rect></clipPath></defs></svg>