<svg xmlns="http://www.w3.org/2000/svg" width="195" height="40" viewBox="0 0 195 40" fill="none"><g clip-path="url(#clip0_54_3081)"><path fill-rule="evenodd" clip-rule="evenodd" d="M33.5311 0H19.9049L0 19.7811L19.7474 39.596H33.6549H41.3401L32.721 30.9432H24.9571L13.7725 19.8149L33.5311 0Z" fill="white"></path><path fill-rule="evenodd" clip-rule="evenodd" d="M37.5032 3.97198L37.4919 3.98323L33.5312 0L26.7575 6.79625L30.6957 10.7345L21.5928 19.7811L41.3401 39.596H55.2477L35.3765 19.8149L44.3557 10.802L37.5032 3.97198Z" fill="#EB4304"></path></g><path d="M171.415 39.2311L178.629 25.7165V27.4739L171.585 14.9494H178.314L183.026 23.9096H183.439L188.102 14.9494H194.806L187.786 27.4739V25.7165L195 39.2311H188.272L183.439 29.7511H183.026L178.144 39.2311H171.415Z" fill="white"></path><path d="M162.757 39.2311V14.9494H168.975V39.2311H162.757ZM165.866 12.0782C164.684 12.0782 163.81 11.7976 163.243 11.2366C162.692 10.6591 162.417 9.86699 162.417 8.86041V8.73665C162.417 7.73007 162.692 6.938 163.243 6.36046C163.81 5.78291 164.684 5.49414 165.866 5.49414C167.032 5.49414 167.898 5.78291 168.465 6.36046C169.032 6.938 169.315 7.73007 169.315 8.73665V8.86041C169.315 9.88349 169.032 10.6756 168.465 11.2366C167.898 11.7976 167.032 12.0782 165.866 12.0782Z" fill="white"></path><path d="M144.69 39.2311V8.8109H151.078V39.2311H144.69ZM135.849 13.0187V7.59806H159.871V13.0187H135.849Z" fill="white"></path><path d="M127.129 39.8251C123.048 39.8251 120.012 38.868 118.02 36.9539C116.028 35.0397 115.033 32.2675 115.033 28.6372V25.469C115.033 21.8717 115.964 19.1077 117.826 17.1771C119.688 15.2464 122.392 14.2811 125.938 14.2811C128.335 14.2811 130.335 14.7101 131.938 15.5682C133.541 16.4263 134.739 17.6474 135.533 19.2315C136.342 20.7991 136.747 22.6803 136.747 24.8749V25.7413C136.747 26.3353 136.715 26.9458 136.65 27.5729C136.601 28.1834 136.528 28.761 136.431 29.3055H130.796C130.845 28.398 130.869 27.5399 130.869 26.7313C130.885 25.9063 130.893 25.1637 130.893 24.5037C130.893 23.3651 130.715 22.3997 130.359 21.6077C130.003 20.7991 129.46 20.1886 128.732 19.776C128.003 19.3635 127.072 19.1572 125.938 19.1572C124.271 19.1572 123.04 19.6275 122.246 20.5681C121.453 21.5087 121.056 22.8453 121.056 24.5779V26.8303L121.081 27.5481V29.4541C121.081 30.2131 121.194 30.9144 121.421 31.558C121.663 32.2015 122.06 32.7626 122.611 33.2411C123.161 33.7031 123.89 34.0662 124.797 34.3302C125.72 34.5942 126.869 34.7262 128.246 34.7262C129.736 34.7262 131.152 34.5612 132.496 34.2312C133.857 33.8847 135.144 33.4226 136.358 32.8451L135.824 37.845C134.739 38.4555 133.46 38.9341 131.986 39.2806C130.529 39.6436 128.91 39.8251 127.129 39.8251ZM118.336 29.3055V25.0977H135.168V29.3055H118.336Z" fill="white"></path><path d="M91.1913 39.2311L98.4052 25.7165V27.4739L91.3614 14.9494H98.0894L102.802 23.9096H103.214L107.878 14.9494H114.582L107.562 27.4739V25.7165L114.776 39.2311H108.048L103.214 29.7511H102.802L97.9194 39.2311H91.1913Z" fill="white"></path><path d="M82.5331 39.2311V14.9494H88.7511V39.2311H82.5331ZM85.6421 12.0782C84.46 12.0782 83.5856 11.7976 83.0188 11.2366C82.4683 10.6591 82.193 9.86699 82.193 8.86041V8.73665C82.193 7.73007 82.4683 6.938 83.0188 6.36046C83.5856 5.78291 84.46 5.49414 85.6421 5.49414C86.8079 5.49414 87.6742 5.78291 88.241 6.36046C88.8077 6.938 89.0911 7.73007 89.0911 8.73665V8.86041C89.0911 9.88349 88.8077 10.6756 88.241 11.2366C87.6742 11.7976 86.8079 12.0782 85.6421 12.0782Z" fill="white"></path><path d="M72.5878 39.2311L71.8834 33.0678C71.7701 31.9622 71.5434 31.0382 71.2034 30.2956C70.8633 29.5531 70.3532 28.992 69.6731 28.6125C68.9931 28.2164 68.0539 28.0184 66.8556 28.0184L59.3503 27.9937V22.9938L67.2442 22.969C69.0092 22.969 70.2723 22.5565 71.0333 21.7314C71.8106 20.8899 72.1992 19.6935 72.1992 18.1424V17.5484C72.1992 16.0137 71.8106 14.8504 71.0333 14.0583C70.2723 13.2498 68.9931 12.8455 67.1957 12.8455H59.2774V7.59806H68.0944C71.7377 7.59806 74.3933 8.34887 76.0612 9.85049C77.7452 11.3521 78.5872 13.489 78.5872 16.2612V16.9543C78.5872 19.0335 78.0934 20.6836 77.1056 21.9047C76.1178 23.1258 74.5471 23.8519 72.3935 24.0829V24.9739L70.6204 24.0829C72.4664 24.2149 73.8913 24.6109 74.8953 25.271C75.9154 25.931 76.6603 26.8468 77.1299 28.0184C77.5995 29.1735 77.9557 30.6091 78.1986 32.3253L79.1459 39.2311H72.5878ZM54.9297 39.2311V7.59806H61.1477V24.7759L61.1963 27.1769V39.2311H54.9297Z" fill="white"></path><defs><clipPath id="clip0_54_3081"><rect width="55.2476" height="39.596" fill="white"></rect></clipPath></defs></svg>